<svg height="480pt" viewBox="-7 0 479 480" width="480pt" xmlns="http://www.w3.org/2000/svg"><path d="m72.5 96h320v248h-320zm0 0" fill="#dce1ea"/><path d="m104.5 168h96v176h-96zm0 0" fill="#9196a9"/><path d="m232.5 168h128v112h-128zm0 0" fill="#3596d8"/><path d="m424.5 280c0 22.089844-17.910156 40-40 40s-40-17.910156-40-40 17.910156-40 40-40 40 17.910156 40 40zm0 0" fill="#f2cba7"/><path d="m360.5 328h48c26.511719 0 48 21.492188 48 48v96h-144v-96c0-26.507812 21.492188-48 48-48zm0 0" fill="#2cb357"/><path d="m368.5 344v-16h32v16l-8 8 8 77.648438-16 16.945312-16-16.945312 8-77.648438zm0 0" fill="#ffbc05"/><path d="m72.5 104 32-8 32 8c0 17.671875-14.328125 32-32 32s-32-14.328125-32-32zm0 0" fill="#bec3d1"/><path d="m200.5 104 32-8 32 8c0 17.671875-14.328125 32-32 32s-32-14.328125-32-32zm0 0" fill="#bec3d1"/><path d="m328.5 104 32-8 32 8c0 17.671875-14.328125 32-32 32s-32-14.328125-32-32zm0 0" fill="#bec3d1"/><g fill="#a30c25"><path d="m392.5 104 32-8 32 8c0 17.671875-14.328125 32-32 32s-32-14.328125-32-32zm0 0"/><path d="m264.5 104 32-8 32 8c0 17.671875-14.328125 32-32 32s-32-14.328125-32-32zm0 0"/><path d="m136.5 104 32-8 32 8c0 17.671875-14.328125 32-32 32s-32-14.328125-32-32zm0 0"/><path d="m8.5 104 32-8 32 8c0 17.671875-14.328125 32-32 32s-32-14.328125-32-32zm0 0"/></g><path d="m8.5 104 56-96h336l56 96zm0 0" fill="#d12136"/><path d="m72.5 104 40-96h48l-24 96zm0 0" fill="#dce1ea"/><path d="m200.5 104h64l-8-96h-48zm0 0" fill="#dce1ea"/><path d="m328.5 104h64l-40-96h-48zm0 0" fill="#dce1ea"/><path d="m424.5 144c22.082031-.027344 39.972656-17.917969 40-40-.019531-.941406-.207031-1.871094-.558594-2.742188-.082031-.230468-.171875-.453124-.273437-.671874-.097657-.203126-.144531-.417969-.253907-.609376l-56-96c-1.433593-2.460937-4.066406-3.976562-6.914062-3.976562h-336c-2.851562.00390625-5.484375 1.53125-6.910156 4l-56 96c-.113282.191406-.160156.40625-.257813.609375-.101562.21875-.191406.441406-.273437.671875-.347656.863281-.535156 1.785156-.558594 2.71875-.039062 15.167969 8.523438 29.046875 22.101562 35.8125 13.574219 6.765625 29.8125 5.246094 41.898438-3.917969v208.105469c0 4.417969 3.582031 8 8 8h237.480469c-3.597657 7.492188-5.46875 15.691406-5.480469 24v96c0 4.417969 3.582031 8 8 8h144c4.417969 0 8-3.582031 8-8v-96c-.035156-30.011719-23.722656-54.660156-53.710938-55.886719 15.265626-9.976562 23.546876-27.75 21.363282-45.855469-2.183594-18.101562-14.453125-33.398437-31.652344-39.457031v-98.90625c6.898438 5.25 15.328125 8.097657 24 8.105469zm0-16c-10.167969-.011719-19.230469-6.417969-22.632812-16h45.265624c-3.402343 9.582031-12.464843 15.988281-22.632812 16zm-77.335938-112 33.335938 80h-45.75l-20-80zm36 96c-3.386718 9.597656-12.457031 16.011719-22.632812 16.011719s-19.246094-6.414063-22.632812-16.011719zm-84.910156-96 20 80h-46.402344l-6.65625-80zm20.878906 96c-3.386718 9.597656-12.457031 16.011719-22.632812 16.011719s-19.246094-6.414063-22.632812-16.011719zm-103.273437-96h33.28125l6.664063 80h-46.609376zm39.273437 96c-3.386718 9.597656-12.457031 16.011719-22.632812 16.011719s-19.246094-6.414063-22.632812-16.011719zm-55.328124-96-6.664063 80h-46.402344l20-80zm-8.671876 96c-3.386718 9.597656-12.457031 16.011719-22.632812 16.011719s-19.246094-6.414063-22.632812-16.011719zm-40.878906-96-20 80h-45.753906l33.335938-80zm-23.121094 96c-3.386718 9.597656-12.457031 16.011719-22.632812 16.011719s-19.246094-6.414063-22.632812-16.011719zm-86.632812 16c-10.167969-.011719-19.230469-6.417969-22.632812-16h45.265624c-3.402343 9.582031-12.464843 15.988281-22.632812 16zm26.664062-32h-44.734374l46.664062-80h31.40625zm125.335938 240h-80v-160h80zm16 0v-168c0-4.417969-3.582031-8-8-8h-96c-4.417969 0-8 3.582031-8 8v168h-16v-200.105469c8.457031 6.425781 19.128906 9.207031 29.644531 7.722657 10.515625-1.480469 20.003907-7.105469 26.355469-15.617188 7.554688 10.070312 19.410156 16 32 16s24.445312-5.929688 32-16c7.554688 10.070312 19.410156 16 32 16s24.445312-5.929688 32-16c7.554688 10.070312 19.410156 16 32 16s24.445312-5.929688 32-16c6.347656 8.515625 15.832031 14.144531 26.347656 15.628906 10.519532 1.488282 21.191406-1.285156 29.652344-7.707031v96.078125c-5.453125.015625-10.867188.960938-16 2.800781v-66.800781c0-4.417969-3.582031-8-8-8h-128c-4.417969 0-8 3.582031-8 8v112c0 4.417969 3.582031 8 8 8h104.71875c2.238281 13.15625 9.839844 24.785156 20.992188 32.113281-13.820313.542969-26.945313 6.203125-36.824219 15.886719zm144-160v68.320312c-8.074219 7.234376-13.457031 16.992188-15.28125 27.679688h-96.71875v-96zm96 200v88h-128v-88c.027344-22.082031 17.917969-39.972656 40-40v8c0 2.121094.84375 4.15625 2.34375 5.65625l5.3125 5.3125-7.617188 73.832031c-.238281 2.316407.546876 4.621094 2.144532 6.3125l16 16.933594c1.511718 1.601563 3.617187 2.507813 5.816406 2.507813s4.304688-.90625 5.816406-2.507813l16-16.933594c1.613282-1.6875 2.410156-3.992187 2.183594-6.3125l-7.617188-73.863281 5.3125-5.3125c1.480469-1.5 2.304688-3.519531 2.304688-5.625v-8c22.082031.027344 39.972656 17.917969 40 40zm-61.65625-29.65625c-1.503906 1.496094-2.347656 3.535156-2.34375 5.65625-.011719-2.101562-.851562-4.117188-2.34375-5.601562l-5.65625-5.710938v-4.6875h16v4.6875zm5.320312 80.480469-7.664062 8.113281-7.664062-8.113281 7.664062-74.023438c0-.273437.039062-.542969.039062-.800781 0 .265625 0 .535156.042969.800781zm24.335938-146.824219c0 17.671875-14.328125 32-32 32s-32-14.328125-32-32 14.328125-32 32-32 32 14.328125 32 32zm-18.664062-184-33.335938-80h31.40625l46.664062 80zm0 0"/></svg>